<svg viewBox="0 100 310 116.718" xml:space="preserve" xmlns="http://www.w3.org/2000/svg" clip-rule="evenodd" fill-rule="evenodd" stroke-linejoin="round" stroke-miterlimit="2">
  <path d="m228.151 195.812 8.956-22.646h25.858l-12.272-34.354L266.041 100 310 216.716h-32.418l-7.513-20.904h-41.918M200.496 216.718l47.058-116.716h-31.198l-32.192 75.423-22.891-75.423h-23.981l-24.578 75.423-17.334-34.368-15.686 48.326 15.927 27.335h30.702l22.211-67.64 21.176 67.64h30.786M29.614 176.65H48.83c5.822 0 11.006-.65 15.551-1.95l4.971-15.309 13.888-42.793a34.16 34.16 0 0 0-3.624-4.758C72.484 103.947 62.05 100 48.313 100H0v116.716h29.614zm25.437-49.797c2.785 2.803 4.178 6.555 4.178 11.255 0 4.736-1.225 8.491-3.674 11.268-2.687 3.085-7.631 4.626-14.836 4.626H29.614v-31.355H40.8c6.715 0 11.465 1.401 14.251 4.206"/>
</svg>